HIERARCHY
ROOT pelvis
{
  OFFSET 0 100 0
  CHANNELS 6 Xposition Yposition Zposition Zrotation Xrotation Yrotation
  JOINT pelvis_right_femur
  {
    OFFSET -10.78128 -3.44521 -0.5502486
    CHANNELS 3 Zrotation Xrotation Yrotation
    JOINT right_femur_tibia
    {
      OFFSET -0.8047443 -44.0398 -0.1307829
      CHANNELS 3 Zrotation Xrotation Yrotation
      JOINT right_tibia_foot
      {
        OFFSET 3.006224 -47.83518 -5
        CHANNELS 3 Zrotation Xrotation Yrotation
        End Site
        {
          OFFSET 0 -5 15
        }
      }
    }
  }
  JOINT pelvis_left_femur
  {
    OFFSET 10.78128 -3.44521 -0.5502486
    CHANNELS 3 Zrotation Xrotation Yrotation
    JOINT left_femur_tibia
    {
      OFFSET 0.8047443 -44.0398 -0.1307829
      CHANNELS 3 Zrotation Xrotation Yrotation
      JOINT left_tibia_foot
      {
        OFFSET -4.370144 -48.10324 -4.275266
        CHANNELS 3 Zrotation Xrotation Yrotation
        End Site
        {
          OFFSET 0 -5 15
        }
      }
    }
  }
  JOINT pelvis_spine1
  {
    OFFSET 0 6.468898 -3.129235
    CHANNELS 3 Zrotation Xrotation Yrotation
    JOINT spine1
    {
      OFFSET 0 23.15396 4.99043
      CHANNELS 3 Zrotation Xrotation Yrotation
      JOINT spine2
      {
        OFFSET 0 20.79997 -5.064912
        CHANNELS 3 Zrotation Xrotation Yrotation
        JOINT neck
        {
          OFFSET 0 14.38658 9.616178
          CHANNELS 3 Zrotation Xrotation Yrotation
          End Site
          {
            OFFSET 0 20 0
          }
        }
      }
      JOINT right_manubrium
      {
        OFFSET -5.722621 16.35077 3.967754
        CHANNELS 3 Zrotation Xrotation Yrotation
        JOINT right_clavicle
        {
          OFFSET -13.16364 1.694482 -4.693211
          CHANNELS 3 Zrotation Xrotation Yrotation
          JOINT right_humerus
          {
            OFFSET -28.5034 -0.3100689 -2.792744
            CHANNELS 3 Zrotation Xrotation Yrotation
            JOINT right_radius
            {
              OFFSET -25.15693 0.02248979 -1.271978
              CHANNELS 3 Zrotation Xrotation Yrotation
              End Site
              {
                OFFSET -15 0 0
              }
            }
          }
        }
      }
      JOINT left_manubrium
      {
        OFFSET 5.722621 16.35077 3.967754
        CHANNELS 3 Zrotation Xrotation Yrotation
        JOINT left_clavicle
        {
          OFFSET 13.16364 1.694482 -4.693211
          CHANNELS 3 Zrotation Xrotation Yrotation
          JOINT left_humerus
          {
            OFFSET 29.39168 -1.063119 -2.237045
            CHANNELS 3 Zrotation Xrotation Yrotation
            JOINT left_radius
            {
              OFFSET 24.59957 -0.9528479 0.9047498
              CHANNELS 3 Zrotation Xrotation Yrotation
              End Site
              {
                OFFSET 15 -0 -0
              }
            }
          }
        }
      }
    }
  }
}
MOTION
Frames: 19
Frame Time: 0.0416666666667
58.22273 103.3121 3074.293 -0.07555806 -10.36135 0.3131274 5.998836 -4.897181 4.842977 -0 18.6071 -0 -4.16126 -5.428141 -7.082548 -2.315533 3.009216 -6.245575 -0 58.02639 -0 -6.301625 -6.399002 17.26329 -1.335401 -1.517246 6.469735 -0.3000885 11.65973 -4.578244 0.2297746 22.09421 7.17307 6.025956 -18.21963 5.323289 2.849758 -22.38895 11.45905 85.17079 31.33309 -11.37484 -0 0 19.15088 -19.56175 9.032689 7.84559 6.302205 -23.06108 -5.497892 -94.73572 10.59265 27.38808 0 0 -2.509309 14.77975 13.8452 -5.006259
58.05354 104.2475 3080.271 0.2141317 -10.96058 -0.8046194 5.492534 0.2007726 4.888536 -0 17.01201 -0 -3.890369 -7.100187 -6.255369 -1.95221 -3.352802 -5.94076 -0 57.37057 -0 -6.428589 -6.534152 18.42471 -1.335881 -1.531474 6.470841 -0.30191 11.64541 -4.57115 0.2243204 22.09529 7.181802 6.023675 -18.20934 5.328661 2.853325 -22.40255 11.4584 85.13844 31.31418 -11.33749 -0 0 19.18147 -19.59286 9.044423 7.879716 6.30563 -23.04598 -5.477177 -94.75887 10.59351 27.43328 0 0 -2.446174 14.74744 13.856 -4.978051
57.93563 104.6777 3086.019 0.4140624 -11.09068 -1.851299 4.978217 4.989219 4.698245 -0 15.19737 -0 -3.63785 -9.06318 -5.342643 -1.278709 -9.620842 -5.554347 -0 52.78469 -0 -6.637012 -7.130625 19.33675 -1.336143 -1.545516 6.472214 -0.3037424 11.63208 -4.564351 0.2187391 22.09602 7.190057 6.021636 -18.19849 5.332941 2.856506 -22.41673 11.45805 85.1069 31.29384 -11.30094 -0 0 19.21274 -19.62422 9.056123 7.913348 6.308726 -23.03198 -5.457935 -94.78152 10.59305 27.47839 0 0 -2.384446 14.7153 13.86608 -4.950189
57.89063 104.5503 3091.704 0.3839854 -10.60805 -2.796418 4.62551 9.18972 4.394157 -0 13.75475 -0 -3.236277 -11.31431 -4.366591 -0.2503064 -15.3563 -4.946448 -0 45.12648 -0 -6.887067 -7.686801 19.87356 -1.336273 -1.559012 6.473966 -0.3053717 11.62023 -4.558302 0.2131797 22.09621 7.197555 6.019879 -18.18767 5.336001 2.85919 -22.43123 11.45799 85.07752 31.27308 -11.26696 -0 0 19.24373 -19.65401 9.067147 7.944741 6.311436 -23.01982 -5.440732 -94.80295 10.59123 27.52212 0 0 -2.326743 14.68457 13.87495 -4.923611
57.94688 103.9479 3097.504 0.1294296 -9.485442 -3.644836 4.386809 12.57076 4.096358 -0 13.09617 -0 -2.478734 -13.6237 -3.305298 0.9447533 -20.12567 -4.140195 -0 35.9805 -0 -7.097688 -7.895023 19.99964 -1.336317 -1.571254 6.476055 -0.3066357 11.6105 -4.553431 0.2079531 22.09579 7.203894 6.018475 -18.17766 5.337741 2.861249 -22.44524 11.45819 85.05205 31.25331 -11.23769 -0 0 19.27268 -19.68017 9.076764 7.971851 6.313644 -23.01021 -5.426425 -94.822 10.58823 27.56209 0 0 -2.276478 14.65709 13.88209 -4.899799
58.12481 103.0462 3103.576 -0.1786515 -7.950859 -4.408302 4.029476 15.07629 3.93622 -0 13.53693 -0 -1.341794 -15.38994 -2.196105 1.853623 -23.54836 -3.439318 -0 27.47798 -0 -7.13018 -7.749446 19.8609 -1.336244 -1.581072 6.478231 -0.307458 11.60373 -4.550108 0.2035745 22.09487 7.208499 6.017553 -18.16934 5.338051 2.86252 -22.45738 11.45864 85.03275 31.23635 -11.21566 -0 0 19.29681 -19.70046 9.084163 7.992327 6.315134 -23.00393 -5.416302 -94.83696 10.58441 27.59455 0 0 -2.238002 14.63534 13.88695 -4.88092
58.42817 102.0568 3110.027 -0.2780839 -6.485711 -5.086554 3.28297 16.87339 4.026206 -0 15.42336 -0 -0.06126243 -15.78431 -1.235072 1.937806 -25.42891 -3.320598 -0 21.60055 -0 -6.845969 -7.501525 19.73265 -1.335952 -1.587052 6.480072 -0.307878 11.60084 -4.548541 0.2006716 22.09373 7.210738 6.017272 -18.16357 5.336849 2.862842 -22.46587 11.45932 85.02189 31.22404 -11.20327 -0 0 19.31285 -19.71292 9.088635 8.004034 6.315628 -23.00158 -5.411822 -94.84588 10.58034 27.61512 0 0 -2.215694 14.62199 13.88906 -4.869412
58.84383 101.1924 3116.872 0.003098505 -5.603825 -5.639476 2.072267 18.12961 4.356362 -0 19.17548 -0 1.049735 -14.2445 -0.7129892 0.9610007 -25.75394 -4.055809 -0 19.19383 -0 -6.221772 -7.442529 19.77647 -1.335318 -1.588078 6.481127 -0.3080305 11.60241 -4.548699 0.1997522 22.09272 7.210183 6.017748 -18.16087 5.33416 2.862132 -22.46919 11.46021 85.02086 31.21766 -11.2018 -0 0 19.31822 -19.7166 9.08983 8.005853 6.314912 -23.00335 -5.413997 -94.84733 10.5766 27.62037 0 0 -2.212301 14.61887 13.88822 -4.867055
59.3456 100.6603 3124.022 0.6007539 -5.57457 -5.957736 0.6532229 18.69927 4.702965 -0 25.09481 -0 1.806789 -10.90483 -0.8153738 -0.7919179 -24.5295 -5.442979 -0 19.60147 -0 -5.411904 -7.713288 19.86255 -1.334284 -1.583879 6.481128 -0.3080647 11.60831 -4.550335 0.2009645 22.09211 7.206847 6.018984 -18.16124 5.330177 2.860448 -22.46681 11.46129 85.02957 31.21745 -11.21092 -0 0 19.31225 -19.7119 9.087886 7.998177 6.312973 -23.00884 -5.42281 -94.84108 10.57357 27.60948 0 0 -2.227676 14.62615 13.88465 -4.874139
59.89679 100.6389 3131.284 1.263942 -6.295478 -5.897699 -0.5137107 18.06999 4.713681 -0 33.00029 -0 2.124564 -6.521952 -1.512598 -2.722322 -21.74474 -6.962327 -0 21.26893 -0 -4.66245 -8.328564 19.70633 -1.332905 -1.575147 6.480096 -0.3080636 11.61779 -4.553112 0.2040476 22.09196 7.201193 6.020851 -18.16426 5.325245 2.857977 -22.45931 11.46247 85.04643 31.22269 -11.22883 -0 0 19.2963 -19.70028 9.083327 7.982653 6.310028 -23.01729 -5.437158 -94.82819 10.57139 27.58449 0 0 -2.258955 14.64235 13.87886 -4.889378
60.4563 101.2131 3138.403 1.72819 -7.344479 -5.382961 -1.06654 15.59381 4.197697 -0 41.91895 -0 1.954259 -2.072012 -2.592143 -4.291162 -17.55119 -8.123498 -0 22.63791 -0 -4.101747 -9.261186 19.15698 -1.331322 -1.563137 6.478266 -0.3080284 11.62972 -4.556713 0.2084963 22.09219 7.19393 6.023147 -18.1693 5.319768 2.854974 -22.448 11.46368 85.06918 31.23214 -11.25313 -0 0 19.27296 -19.68352 9.076823 7.961443 6.306427 -23.02778 -5.455339 -94.8104 10.56996 27.54909 0 0 -2.301917 14.6651 13.8715 -4.910602
60.99159 102.2944 3145.142 1.838194 -8.211247 -4.476033 -0.9715091 10.90816 3.371763 -0 50.03618 -0 1.364591 1.512679 -3.781353 -5.231138 -12.39808 -8.704584 -0 22.72768 -0 -3.631481 -10.42895 18.34216 -1.329698 -1.549173 6.475938 -0.3079168 11.643 -4.560884 0.2137763 22.09264 7.185764 6.025662 -18.17577 5.314127 2.851685 -22.4343 11.46483 85.0956 31.24458 -11.2815 -0 0 19.24497 -19.66329 9.068996 7.936582 6.302529 -23.03947 -5.475629 -94.78957 10.56915 27.50719 0 0 -2.352379 14.69199 13.86316 -4.935574
61.48682 103.5974 3151.366 1.595398 -8.619166 -3.34779 -0.4838519 4.38554 2.702603 -0 55.14505 -0 0.5636065 3.416426 -4.902623 -5.554658 -6.911669 -8.822772 -0 21.34573 -0 -3.106243 -11.71147 17.55161 -1.328174 -1.534353 6.473378 -0.3076805 11.65673 -4.565431 0.2194471 22.09318 7.177275 6.028218 -18.1832 5.308641 2.848315 -22.41941 11.46585 85.12385 31.25904 -11.31207 -0 0 19.21458 -19.64089 9.060341 7.909695 6.298625 -23.05168 -5.496598 -94.76721 10.56884 27.46207 0 0 -2.40689 14.72105 13.85433 -4.96243
61.93443 104.7312 3157.099 1.179057 -8.625415 -2.181829 0.06502926 -2.871628 2.409101 -0 55.5911 -0 -0.2286163 3.216169 -5.904781 -5.471586 -1.642136 -8.785508 -0 18.98433 -0 -2.569049 -13.07101 16.94762 -1.326855 -1.519483 6.470787 -0.3072779 11.67024 -4.570211 0.2251902 22.09369 7.168887 6.030682 -18.19125 5.303552 2.84502 -22.40419 11.4667 85.1526 31.27482 -11.34348 -0 0 19.18345 -19.61723 9.051216 7.881954 6.294925 -23.06393 -5.517187 -94.74449 10.56896 27.41612 0 0 -2.462895 14.75085 13.84538 -4.989795
62.32274 105.3667 3162.493 0.8651844 -8.388198 -1.103275 0.4055276 -9.678994 2.247291 -0 51.13416 -0 -0.85603 1.31565 -6.755525 -5.272461 3.0751 -8.790676 -0 16.43564 -0 -2.190018 -14.5784 16.42484 -1.325818 -1.505108 6.468306 -0.306673 11.68308 -4.575135 0.2307949 22.09411 7.160883 6.032959 -18.19972 5.299035 2.841909 -22.38923 11.46732 85.18097 31.29147 -11.37481 -0 0 19.1527 -19.59289 9.041853 7.854114 6.291566 -23.07586 -5.536668 -94.72218 10.56948 27.371 0 0 -2.518658 14.78042 13.83656 -5.016728
62.6395 105.3521 3167.771 0.8358255 -7.961171 -0.1635622 0.4028869 -15.36733 1.847046 -0 43.02394 -0 -1.209483 -1.187964 -7.389516 -5.179235 7.119063 -8.809504 -0 14.35579 -0 -2.079769 -16.25104 15.78176 -1.325123 -1.49163 6.466051 -0.3058311 11.69493 -4.580144 0.2361089 22.09438 7.153467 6.034974 -18.20849 5.295219 2.839062 -22.37499 11.4677 85.2083 31.3087 -11.40543 -0 0 19.12315 -19.56822 9.03241 7.826695 6.288646 -23.08724 -5.554507 -94.70089 10.57038 27.32795 0 0 -2.572896 14.80906 13.82806 -5.042531
62.88074 104.7162 3173.161 1.078353 -7.349888 0.641253 0.113062 -19.76077 1.097063 -0 33.30039 -0 -1.275679 -3.23957 -7.770936 -5.249222 10.53849 -8.748663 -0 13.11804 -0 -2.284157 -17.92855 14.9325 -1.32483 -1.479534 6.464158 -0.3047216 11.70539 -4.585153 0.2409483 22.09444 7.146881 6.036647 -18.21736 5.292247 2.836575 -22.36199 11.46781 85.2338 31.32608 -11.4345 -0 0 19.09581 -19.54376 9.023104 7.800372 6.28627 -23.09776 -5.570073 -94.68136 10.57162 27.28848 0 0 -2.623975 14.83589 13.82012 -5.066337
63.04423 103.614 3178.846 1.442732 -6.630636 1.343895 -0.2387671 -22.86607 0.192103 -0 24.01305 -0 -1.200543 -4.321441 -7.946145 -5.393253 13.46332 -8.596796 -0 12.97595 -0 -2.825825 -19.2965 13.95076 -1.325005 -1.469571 6.46281 -0.3033382 11.71386 -4.589959 0.2450257 22.09421 7.141509 6.037855 -18.22594 5.290328 2.8346 -22.35106 11.46763 85.25609 31.34279 -11.46056 -0 0 19.0723 -19.52055 9.014363 7.776394 6.284593 -23.1069 -5.582393 -94.66476 10.57317 27.25501 0 0 -2.669097 14.85943 13.81317 -5.086745
63.11721 102.2796 3184.943 1.734568 -5.968704 1.978077 -0.3366966 -24.69228 -0.5158416 -0 16.79964 -0 -1.234566 -4.428495 -8.017809 -5.451223 15.97177 -8.41246 -0 14.26076 -0 -3.660679 -19.96693 13.02001 -1.325692 -1.462706 6.462185 -0.3017353 11.71949 -4.5942 0.2479712 22.09368 7.137868 6.038453 -18.23362 5.289738 2.833349 -22.34324 11.46714 85.27322 31.35759 -11.48141 -0 0 19.05475 -19.50032 9.006869 7.75669 6.283802 -23.11383 -5.590191 -94.65271 10.57496 27.23071 0 0 -2.70423 14.87761 13.80785 -5.101854
